<svg width="139" height="39" viewBox="0 0 139 39" fill="none" xmlns="http://www.w3.org/2000/svg">
<rect width="139" height="39" rx="19.5" fill="#7E3AF2"/>
<path d="M21.008 19.988H22.73V23.894C22.226 24.2953 21.638 24.6033 20.966 24.818C20.294 25.0327 19.6033 25.14 18.894 25.14C17.8953 25.14 16.9947 24.9253 16.192 24.496C15.3893 24.0573 14.7593 23.4553 14.302 22.69C13.8447 21.9247 13.616 21.0613 13.616 20.1C13.616 19.1387 13.8447 18.2753 14.302 17.51C14.7593 16.7447 15.3893 16.1473 16.192 15.718C17.004 15.2793 17.914 15.06 18.922 15.06C19.7433 15.06 20.49 15.1953 21.162 15.466C21.834 15.7367 22.3987 16.1333 22.856 16.656L21.708 17.776C20.9613 17.0293 20.0607 16.656 19.006 16.656C18.3153 16.656 17.6993 16.8007 17.158 17.09C16.626 17.3793 16.206 17.7853 15.898 18.308C15.5993 18.8307 15.45 19.428 15.45 20.1C15.45 20.7533 15.5993 21.3413 15.898 21.864C16.206 22.3867 16.626 22.7973 17.158 23.096C17.6993 23.3947 18.3107 23.544 18.992 23.544C19.7573 23.544 20.4293 23.376 21.008 23.04V19.988ZM31.9905 21.304C31.9905 21.4253 31.9811 21.598 31.9625 21.822H26.0965C26.1991 22.3727 26.4651 22.8113 26.8945 23.138C27.3331 23.4553 27.8745 23.614 28.5185 23.614C29.3398 23.614 30.0165 23.3433 30.5485 22.802L31.4865 23.88C31.1505 24.2813 30.7258 24.5847 30.2125 24.79C29.6991 24.9953 29.1205 25.098 28.4765 25.098C27.6551 25.098 26.9318 24.9347 26.3065 24.608C25.6811 24.2813 25.1958 23.8287 24.8505 23.25C24.5145 22.662 24.3465 21.9993 24.3465 21.262C24.3465 20.534 24.5098 19.8807 24.8365 19.302C25.1725 18.714 25.6345 18.2567 26.2225 17.93C26.8105 17.6033 27.4731 17.44 28.2105 17.44C28.9385 17.44 29.5871 17.6033 30.1565 17.93C30.7351 18.2473 31.1831 18.7 31.5005 19.288C31.8271 19.8667 31.9905 20.5387 31.9905 21.304ZM28.2105 18.84C27.6505 18.84 27.1745 19.008 26.7825 19.344C26.3998 19.6707 26.1665 20.1093 26.0825 20.66H30.3245C30.2498 20.1187 30.0211 19.68 29.6385 19.344C29.2558 19.008 28.7798 18.84 28.2105 18.84ZM38.1654 24.594C37.9601 24.762 37.7081 24.888 37.4094 24.972C37.1201 25.056 36.8121 25.098 36.4854 25.098C35.6641 25.098 35.0294 24.8833 34.5814 24.454C34.1334 24.0247 33.9094 23.3993 33.9094 22.578V18.98H32.6774V17.58H33.9094V15.872H35.6594V17.58H37.6614V18.98H35.6594V22.536C35.6594 22.9 35.7481 23.18 35.9254 23.376C36.1028 23.5627 36.3594 23.656 36.6954 23.656C37.0874 23.656 37.4141 23.5533 37.6754 23.348L38.1654 24.594ZM43.4742 17.524H45.2242V25H43.4742V17.524ZM44.3562 16.292C44.0388 16.292 43.7728 16.194 43.5582 15.998C43.3435 15.7927 43.2362 15.5407 43.2362 15.242C43.2362 14.9433 43.3435 14.696 43.5582 14.5C43.7728 14.2947 44.0388 14.192 44.3562 14.192C44.6735 14.192 44.9395 14.29 45.1542 14.486C45.3688 14.6727 45.4762 14.9107 45.4762 15.2C45.4762 15.508 45.3688 15.7693 45.1542 15.984C44.9488 16.1893 44.6828 16.292 44.3562 16.292ZM51.763 17.44C52.7057 17.44 53.4617 17.7153 54.031 18.266C54.6004 18.8167 54.885 19.6333 54.885 20.716V25H53.135V20.94C53.135 20.2867 52.981 19.7967 52.673 19.47C52.365 19.134 51.9264 18.966 51.357 18.966C50.713 18.966 50.2044 19.162 49.831 19.554C49.4577 19.9367 49.271 20.492 49.271 21.22V25H47.521V17.524H49.187V18.49C49.4764 18.1447 49.8404 17.8833 50.279 17.706C50.7177 17.5287 51.2124 17.44 51.763 17.44ZM65.4682 24.594C65.2628 24.762 65.0108 24.888 64.7122 24.972C64.4228 25.056 64.1148 25.098 63.7882 25.098C62.9668 25.098 62.3322 24.8833 61.8842 24.454C61.4362 24.0247 61.2122 23.3993 61.2122 22.578V18.98H59.9802V17.58H61.2122V15.872H62.9622V17.58H64.9642V18.98H62.9622V22.536C62.9622 22.9 63.0508 23.18 63.2282 23.376C63.4055 23.5627 63.6622 23.656 63.9982 23.656C64.3902 23.656 64.7168 23.5533 64.9782 23.348L65.4682 24.594ZM70.0217 25.098C69.2657 25.098 68.5843 24.9347 67.9777 24.608C67.371 24.2813 66.895 23.8287 66.5497 23.25C66.2137 22.662 66.0457 21.9993 66.0457 21.262C66.0457 20.5247 66.2137 19.8667 66.5497 19.288C66.895 18.7093 67.371 18.2567 67.9777 17.93C68.5843 17.6033 69.2657 17.44 70.0217 17.44C70.787 17.44 71.473 17.6033 72.0797 17.93C72.6863 18.2567 73.1577 18.7093 73.4937 19.288C73.839 19.8667 74.0117 20.5247 74.0117 21.262C74.0117 21.9993 73.839 22.662 73.4937 23.25C73.1577 23.8287 72.6863 24.2813 72.0797 24.608C71.473 24.9347 70.787 25.098 70.0217 25.098ZM70.0217 23.6C70.6657 23.6 71.1977 23.3853 71.6177 22.956C72.0377 22.5267 72.2477 21.962 72.2477 21.262C72.2477 20.562 72.0377 19.9973 71.6177 19.568C71.1977 19.1387 70.6657 18.924 70.0217 18.924C69.3777 18.924 68.8457 19.1387 68.4257 19.568C68.015 19.9973 67.8097 20.562 67.8097 21.262C67.8097 21.962 68.015 22.5267 68.4257 22.956C68.8457 23.3853 69.3777 23.6 70.0217 23.6ZM82.9231 17.524V25H81.2571V24.048C80.9771 24.384 80.6271 24.6453 80.2071 24.832C79.7871 25.0093 79.3344 25.098 78.8491 25.098C77.8504 25.098 77.0618 24.8227 76.4831 24.272C75.9138 23.712 75.6291 22.886 75.6291 21.794V17.524H77.3791V21.556C77.3791 22.228 77.5284 22.732 77.8271 23.068C78.1351 23.3947 78.5691 23.558 79.1291 23.558C79.7544 23.558 80.2491 23.3667 80.6131 22.984C80.9864 22.592 81.1731 22.032 81.1731 21.304V17.524H82.9231ZM88.6444 25.098C87.8697 25.098 87.1744 24.9347 86.5584 24.608C85.9424 24.2813 85.4617 23.8287 85.1164 23.25C84.7711 22.662 84.5984 21.9993 84.5984 21.262C84.5984 20.5247 84.7711 19.8667 85.1164 19.288C85.4617 18.7093 85.9377 18.2567 86.5444 17.93C87.1604 17.6033 87.8604 17.44 88.6444 17.44C89.3817 17.44 90.0257 17.5893 90.5764 17.888C91.1364 18.1867 91.5564 18.616 91.8364 19.176L90.4924 19.96C90.2777 19.6147 90.0071 19.358 89.6804 19.19C89.3631 19.0127 89.0131 18.924 88.6304 18.924C87.9771 18.924 87.4357 19.1387 87.0064 19.568C86.5771 19.988 86.3624 20.5527 86.3624 21.262C86.3624 21.9713 86.5724 22.5407 86.9924 22.97C87.4217 23.39 87.9677 23.6 88.6304 23.6C89.0131 23.6 89.3631 23.516 89.6804 23.348C90.0071 23.1707 90.2777 22.9093 90.4924 22.564L91.8364 23.348C91.5471 23.908 91.1224 24.342 90.5624 24.65C90.0117 24.9487 89.3724 25.098 88.6444 25.098ZM97.5228 17.44C98.4655 17.44 99.2215 17.7153 99.7908 18.266C100.36 18.8167 100.645 19.6333 100.645 20.716V25H98.8948V20.94C98.8948 20.2867 98.7408 19.7967 98.4328 19.47C98.1248 19.134 97.6861 18.966 97.1168 18.966C96.4728 18.966 95.9641 19.162 95.5908 19.554C95.2175 19.9367 95.0308 20.492 95.0308 21.22V25H93.2808V14.612H95.0308V18.392C95.3201 18.084 95.6748 17.8507 96.0948 17.692C96.5241 17.524 97.0001 17.44 97.5228 17.44Z" fill="white"/>
<path d="M123.958 20.2152C124.09 20.1487 124.202 20.0465 124.28 19.9202C124.358 19.7939 124.399 19.6484 124.399 19.5C124.399 19.3515 124.358 19.206 124.28 19.0797C124.202 18.9534 124.09 18.8513 123.958 18.7848L112.758 13.1848C112.619 13.1153 112.463 13.0877 112.308 13.1054C112.154 13.1232 112.008 13.1854 111.889 13.2845C111.769 13.3837 111.681 13.5155 111.635 13.6638C111.589 13.8122 111.588 13.9707 111.63 14.12L112.774 18.12C112.821 18.2872 112.922 18.4342 113.061 18.5389C113.2 18.6435 113.369 18.7001 113.543 18.7H117.2C117.412 18.7 117.616 18.7843 117.766 18.9343C117.916 19.0843 118 19.2878 118 19.5C118 19.7122 117.916 19.9156 117.766 20.0657C117.616 20.2157 117.412 20.3 117.2 20.3H113.543C113.369 20.2999 113.2 20.3564 113.061 20.4611C112.922 20.5658 112.821 20.7128 112.774 20.88L111.631 24.88C111.588 25.0292 111.59 25.1877 111.636 25.3361C111.682 25.4844 111.77 25.6163 111.889 25.7155C112.008 25.8147 112.154 25.8771 112.308 25.8949C112.463 25.9128 112.619 25.8853 112.758 25.816L123.958 20.216V20.2152Z" fill="white"/>
</svg>
