<svg width="188" height="50" viewBox="0 0 188 50" fill="none" xmlns="http://www.w3.org/2000/svg">
<rect width="188" height="50" rx="25" fill="#7E3AF2"/>
<path d="M34.152 25.272H36.12V29.736C35.544 30.1947 34.872 30.5467 34.104 30.792C33.336 31.0373 32.5467 31.16 31.736 31.16C30.5947 31.16 29.5653 30.9147 28.648 30.424C27.7307 29.9227 27.0107 29.2347 26.488 28.36C25.9653 27.4853 25.704 26.4987 25.704 25.4C25.704 24.3013 25.9653 23.3147 26.488 22.44C27.0107 21.5653 27.7307 20.8827 28.648 20.392C29.576 19.8907 30.616 19.64 31.768 19.64C32.7067 19.64 33.56 19.7947 34.328 20.104C35.096 20.4133 35.7413 20.8667 36.264 21.464L34.952 22.744C34.0987 21.8907 33.0693 21.464 31.864 21.464C31.0747 21.464 30.3707 21.6293 29.752 21.96C29.144 22.2907 28.664 22.7547 28.312 23.352C27.9707 23.9493 27.8 24.632 27.8 25.4C27.8 26.1467 27.9707 26.8187 28.312 27.416C28.664 28.0133 29.144 28.4827 29.752 28.824C30.3707 29.1653 31.0693 29.336 31.848 29.336C32.7227 29.336 33.4907 29.144 34.152 28.76V25.272ZM46.7034 26.776C46.7034 26.9147 46.6927 27.112 46.6714 27.368H39.9674C40.0847 27.9973 40.3887 28.4987 40.8794 28.872C41.3807 29.2347 41.9994 29.416 42.7354 29.416C43.674 29.416 44.4474 29.1067 45.0554 28.488L46.1274 29.72C45.7434 30.1787 45.258 30.5253 44.6714 30.76C44.0847 30.9947 43.4234 31.112 42.6874 31.112C41.7487 31.112 40.922 30.9253 40.2074 30.552C39.4927 30.1787 38.938 29.6613 38.5434 29C38.1594 28.328 37.9674 27.5707 37.9674 26.728C37.9674 25.896 38.154 25.1493 38.5274 24.488C38.9114 23.816 39.4394 23.2933 40.1114 22.92C40.7834 22.5467 41.5407 22.36 42.3834 22.36C43.2154 22.36 43.9567 22.5467 44.6074 22.92C45.2687 23.2827 45.7807 23.8 46.1434 24.472C46.5167 25.1333 46.7034 25.9013 46.7034 26.776ZM42.3834 23.96C41.7434 23.96 41.1994 24.152 40.7514 24.536C40.314 24.9093 40.0474 25.4107 39.9514 26.04H44.7994C44.714 25.4213 44.4527 24.92 44.0154 24.536C43.578 24.152 43.034 23.96 42.3834 23.96ZM53.7605 30.536C53.5258 30.728 53.2378 30.872 52.8965 30.968C52.5658 31.064 52.2138 31.112 51.8405 31.112C50.9018 31.112 50.1765 30.8667 49.6645 30.376C49.1525 29.8853 48.8965 29.1707 48.8965 28.232V24.12H47.4885V22.52H48.8965V20.568H50.8965V22.52H53.1845V24.12H50.8965V28.184C50.8965 28.6 50.9978 28.92 51.2005 29.144C51.4032 29.3573 51.6965 29.464 52.0805 29.464C52.5285 29.464 52.9018 29.3467 53.2005 29.112L53.7605 30.536ZM59.8276 22.456H61.8276V31H59.8276V22.456ZM60.8356 21.048C60.473 21.048 60.169 20.936 59.9236 20.712C59.6783 20.4773 59.5556 20.1893 59.5556 19.848C59.5556 19.5067 59.6783 19.224 59.9236 19C60.169 18.7653 60.473 18.648 60.8356 18.648C61.1983 18.648 61.5023 18.76 61.7476 18.984C61.993 19.1973 62.1156 19.4693 62.1156 19.8C62.1156 20.152 61.993 20.4507 61.7476 20.696C61.513 20.9307 61.209 21.048 60.8356 21.048ZM69.3006 22.36C70.378 22.36 71.242 22.6747 71.8926 23.304C72.5433 23.9333 72.8686 24.8667 72.8686 26.104V31H70.8686V26.36C70.8686 25.6133 70.6926 25.0533 70.3406 24.68C69.9886 24.296 69.4873 24.104 68.8366 24.104C68.1006 24.104 67.5193 24.328 67.0926 24.776C66.666 25.2133 66.4526 25.848 66.4526 26.68V31H64.4526V22.456H66.3566V23.56C66.6873 23.1653 67.1033 22.8667 67.6046 22.664C68.106 22.4613 68.6713 22.36 69.3006 22.36ZM84.9636 30.536C84.729 30.728 84.441 30.872 84.0996 30.968C83.769 31.064 83.417 31.112 83.0436 31.112C82.105 31.112 81.3796 30.8667 80.8676 30.376C80.3556 29.8853 80.0996 29.1707 80.0996 28.232V24.12H78.6916V22.52H80.0996V20.568H82.0996V22.52H84.3876V24.12H82.0996V28.184C82.0996 28.6 82.201 28.92 82.4036 29.144C82.6063 29.3573 82.8996 29.464 83.2836 29.464C83.7316 29.464 84.105 29.3467 84.4036 29.112L84.9636 30.536ZM90.1676 31.112C89.3036 31.112 88.525 30.9253 87.8316 30.552C87.1383 30.1787 86.5943 29.6613 86.1996 29C85.8156 28.328 85.6236 27.5707 85.6236 26.728C85.6236 25.8853 85.8156 25.1333 86.1996 24.472C86.5943 23.8107 87.1383 23.2933 87.8316 22.92C88.525 22.5467 89.3036 22.36 90.1676 22.36C91.0423 22.36 91.8263 22.5467 92.5196 22.92C93.213 23.2933 93.7516 23.8107 94.1356 24.472C94.5303 25.1333 94.7276 25.8853 94.7276 26.728C94.7276 27.5707 94.5303 28.328 94.1356 29C93.7516 29.6613 93.213 30.1787 92.5196 30.552C91.8263 30.9253 91.0423 31.112 90.1676 31.112ZM90.1676 29.4C90.9036 29.4 91.5116 29.1547 91.9916 28.664C92.4716 28.1733 92.7116 27.528 92.7116 26.728C92.7116 25.928 92.4716 25.2827 91.9916 24.792C91.5116 24.3013 90.9036 24.056 90.1676 24.056C89.4316 24.056 88.8236 24.3013 88.3436 24.792C87.8743 25.2827 87.6396 25.928 87.6396 26.728C87.6396 27.528 87.8743 28.1733 88.3436 28.664C88.8236 29.1547 89.4316 29.4 90.1676 29.4ZM104.912 22.456V31H103.008V29.912C102.688 30.296 102.288 30.5947 101.808 30.808C101.328 31.0107 100.811 31.112 100.256 31.112C99.1148 31.112 98.2135 30.7973 97.5521 30.168C96.9015 29.528 96.5761 28.584 96.5761 27.336V22.456H98.5761V27.064C98.5761 27.832 98.7468 28.408 99.0881 28.792C99.4401 29.1653 99.9361 29.352 100.576 29.352C101.291 29.352 101.856 29.1333 102.272 28.696C102.699 28.248 102.912 27.608 102.912 26.776V22.456H104.912ZM111.451 31.112C110.565 31.112 109.771 30.9253 109.067 30.552C108.363 30.1787 107.813 29.6613 107.419 29C107.024 28.328 106.827 27.5707 106.827 26.728C106.827 25.8853 107.024 25.1333 107.419 24.472C107.813 23.8107 108.357 23.2933 109.051 22.92C109.755 22.5467 110.555 22.36 111.451 22.36C112.293 22.36 113.029 22.5307 113.659 22.872C114.299 23.2133 114.779 23.704 115.099 24.344L113.563 25.24C113.317 24.8453 113.008 24.552 112.635 24.36C112.272 24.1573 111.872 24.056 111.435 24.056C110.688 24.056 110.069 24.3013 109.579 24.792C109.088 25.272 108.843 25.9173 108.843 26.728C108.843 27.5387 109.083 28.1893 109.563 28.68C110.053 29.16 110.677 29.4 111.435 29.4C111.872 29.4 112.272 29.304 112.635 29.112C113.008 28.9093 113.317 28.6107 113.563 28.216L115.099 29.112C114.768 29.752 114.283 30.248 113.643 30.6C113.013 30.9413 112.283 31.112 111.451 31.112ZM121.598 22.36C122.675 22.36 123.539 22.6747 124.19 23.304C124.84 23.9333 125.166 24.8667 125.166 26.104V31H123.166V26.36C123.166 25.6133 122.99 25.0533 122.638 24.68C122.286 24.296 121.784 24.104 121.134 24.104C120.398 24.104 119.816 24.328 119.39 24.776C118.963 25.2133 118.75 25.848 118.75 26.68V31H116.75V19.128H118.75V23.448C119.08 23.096 119.486 22.8293 119.966 22.648C120.456 22.456 121 22.36 121.598 22.36Z" fill="#FCFBFA"/>
<path d="M145 25L142.269 16.126C148.802 18.0257 154.962 21.0268 160.485 25C154.963 28.9738 148.803 31.9755 142.27 33.876L145 25ZM145 25H152.5H145Z" fill="#FCFBFA"/>
<path d="M145 25L142.269 16.126C148.802 18.0257 154.962 21.0268 160.485 25C154.963 28.9738 148.803 31.9755 142.27 33.876L145 25ZM145 25H152.5" stroke="#7E3AF2" stroke-width="1.5" stroke-linecap="round" stroke-linejoin="round"/>
</svg>
