<svg width="24" height="24" viewBox="0 0 24 24" fill="none" xmlns="http://www.w3.org/2000/svg">
<path d="M21.1 12C21.1 14.4135 20.1413 16.7281 18.4347 18.4347C16.7281 20.1413 14.4135 21.1 12 21.1C9.58655 21.1 7.27193 20.1413 5.56535 18.4347C3.85877 16.7281 2.90002 14.4135 2.90002 12C2.90002 9.58655 3.85877 7.27193 5.56535 5.56535C7.27193 3.85877 9.58655 2.90002 12 2.90002C14.4135 2.90002 16.7281 3.85877 18.4347 5.56535C20.1413 7.27193 21.1 9.58655 21.1 12ZM13.2021 18.0021C13.5209 17.6833 13.7 17.2509 13.7 16.8C13.7 16.3492 13.5209 15.9168 13.2021 15.5979C12.8833 15.2791 12.4509 15.1 12 15.1C11.5492 15.1 11.1168 15.2791 10.7979 15.5979C10.4791 15.9168 10.3 16.3492 10.3 16.8C10.3 17.2509 10.4791 17.6833 10.7979 18.0021C11.1168 18.3209 11.5492 18.5 12 18.5C12.4509 18.5 12.8833 18.3209 13.2021 18.0021ZM12 5.50002C11.5492 5.50002 11.1168 5.67913 10.7979 5.99794C10.4791 6.31676 10.3 6.74916 10.3 7.20002V12C10.3 12.4509 10.4791 12.8833 10.7979 13.2021C11.1168 13.5209 11.5492 13.7 12 13.7C12.4509 13.7 12.8833 13.5209 13.2021 13.2021C13.5209 12.8833 13.7 12.4509 13.7 12V7.20002C13.7 6.74916 13.5209 6.31676 13.2021 5.99794C12.8833 5.67913 12.4509 5.50002 12 5.50002Z" fill="#E02424" stroke="#E02424"/>
</svg>
