<svg width="44" height="44" viewBox="0 0 44 44" fill="none" xmlns="http://www.w3.org/2000/svg">
<circle cx="22" cy="22" r="21" fill="#FCFBFA" stroke="#7E3AF2" stroke-width="2"/>
<path fill-rule="evenodd" clip-rule="evenodd" d="M14.2999 17.6C14.2999 17.1624 14.4738 16.7427 14.7832 16.4333C15.0926 16.1238 15.5123 15.95 15.9499 15.95H28.0499C28.4875 15.95 28.9072 16.1238 29.2167 16.4333C29.5261 16.7427 29.6999 17.1624 29.6999 17.6V26.4C29.6999 26.8376 29.5261 27.2573 29.2167 27.5667C28.9072 27.8762 28.4875 28.05 28.0499 28.05H15.9499C15.5123 28.05 15.0926 27.8762 14.7832 27.5667C14.4738 27.2573 14.2999 26.8376 14.2999 26.4V17.6ZM15.3999 24.9773V26.4C15.3999 26.7036 15.6463 26.95 15.9499 26.95H28.0499C28.1958 26.95 28.3357 26.8921 28.4388 26.7889C28.542 26.6858 28.5999 26.5459 28.5999 26.4V24.9773L26.6273 23.0054C26.421 22.7994 26.1414 22.6837 25.8499 22.6837C25.5584 22.6837 25.2788 22.7994 25.0726 23.0054L24.4273 23.65L25.1386 24.3613C25.1926 24.4117 25.236 24.4724 25.266 24.5399C25.2961 24.6073 25.3123 24.6802 25.3136 24.754C25.3149 24.8279 25.3013 24.9012 25.2736 24.9697C25.246 25.0382 25.2048 25.1004 25.1526 25.1526C25.1003 25.2049 25.0381 25.246 24.9696 25.2737C24.9011 25.3013 24.8278 25.3149 24.7539 25.3136C24.6801 25.3123 24.6073 25.2962 24.5398 25.2661C24.4723 25.236 24.4116 25.1927 24.3613 25.1387L20.5773 21.3554C20.371 21.1494 20.0914 21.0337 19.7999 21.0337C19.5084 21.0337 19.2288 21.1494 19.0226 21.3554L15.3999 24.9781V24.9773ZM22.8249 19.25C22.8249 19.0312 22.9118 18.8214 23.0666 18.6666C23.2213 18.5119 23.4311 18.425 23.6499 18.425C23.8687 18.425 24.0786 18.5119 24.2333 18.6666C24.388 18.8214 24.4749 19.0312 24.4749 19.25C24.4749 19.4688 24.388 19.6786 24.2333 19.8334C24.0786 19.9881 23.8687 20.075 23.6499 20.075C23.4311 20.075 23.2213 19.9881 23.0666 19.8334C22.9118 19.6786 22.8249 19.4688 22.8249 19.25Z" fill="#7E3AF2"/>
</svg>
