<svg width="44" height="44" viewBox="0 0 44 44" fill="none" xmlns="http://www.w3.org/2000/svg">
<circle cx="22" cy="22" r="21" fill="#FCFBFA" stroke="#7E3AF2" stroke-width="2"/>
<g clip-path="url(#clip0_31_3747)">
<path fill-rule="evenodd" clip-rule="evenodd" d="M28.3059 14.3C28.0302 14.3 27.7611 14.3814 27.5323 14.5347L23.8069 17.017C22.8721 17.6404 22.0173 18.376 21.2615 19.2075C22.8139 19.9372 24.0628 21.1861 24.7925 22.7385C25.624 21.9825 26.3596 21.1274 26.983 20.1923L29.4661 16.4677C29.6059 16.2577 29.6861 16.0137 29.6982 15.7617C29.7103 15.5097 29.6538 15.2591 29.5348 15.0367C29.4157 14.8142 29.2386 14.6282 29.0222 14.4985C28.8058 14.3688 28.5582 14.3002 28.3059 14.3ZM22.2193 24.585C22.7 24.318 23.1643 24.0224 23.6097 23.6999C23.3137 22.9512 22.8673 22.2712 22.298 21.702C21.7288 21.1327 21.0488 20.6863 20.3001 20.3903C19.9776 20.8354 19.682 21.2995 19.415 21.78L19.2111 22.1467C19.839 22.3273 20.4106 22.6644 20.8725 23.1265C21.3344 23.5885 21.6714 24.1602 21.8519 24.7881L22.22 24.5843L22.2193 24.585ZM18.15 23.1C17.4206 23.1 16.7212 23.3897 16.2054 23.9055C15.6897 24.4212 15.4 25.1207 15.4 25.85C15.4 26.0007 15.3691 26.1498 15.3091 26.2881C15.2491 26.4264 15.1614 26.5508 15.0513 26.6538C14.9412 26.7567 14.8111 26.8359 14.6691 26.8865C14.5272 26.9371 14.3763 26.958 14.2259 26.9478C14.1265 26.9411 14.0271 26.9616 13.9384 27.007C13.8497 27.0524 13.775 27.1211 13.7223 27.2056C13.6696 27.2902 13.6408 27.3875 13.6391 27.4871C13.6374 27.5868 13.6628 27.685 13.7126 27.7713C14.1356 28.5063 14.7895 29.081 15.5726 29.4062C16.3558 29.7314 17.2244 29.789 18.0436 29.57C18.8628 29.351 19.5868 28.8676 20.1032 28.195C20.6196 27.5223 20.8994 26.698 20.8993 25.85C20.8993 25.4889 20.8281 25.1313 20.6899 24.7976C20.5517 24.464 20.3492 24.1608 20.0938 23.9055C19.8384 23.6501 19.5353 23.4475 19.2016 23.3093C18.868 23.1711 18.5104 23.1 18.1493 23.1H18.15Z" fill="#7E3AF2"/>
</g>
<defs>
<clipPath id="clip0_31_3747">
<rect width="17.6" height="17.6" fill="white" transform="translate(13.2 13.2)"/>
</clipPath>
</defs>
</svg>
