<svg width="44" height="44" viewBox="0 0 44 44" fill="none" xmlns="http://www.w3.org/2000/svg">
<circle cx="22" cy="22" r="21" fill="#FCFBFA" stroke="#7E3AF2" stroke-width="2"/>
<path fill-rule="evenodd" clip-rule="evenodd" d="M27.8314 14.4107C27.8994 14.462 27.9545 14.5284 27.9924 14.6046C28.0303 14.6809 28.05 14.7649 28.05 14.85V25.1555C28.0499 25.6336 27.8941 26.0985 27.6062 26.4801C27.3183 26.8617 26.9139 27.1392 26.4542 27.2705L25.4862 27.5469C25.2488 27.6182 24.9995 27.6416 24.7529 27.6158C24.5063 27.5899 24.2673 27.5154 24.0498 27.3964C23.8322 27.2774 23.6405 27.1165 23.4857 26.9228C23.3309 26.7291 23.2161 26.5066 23.1479 26.2682C23.0798 26.0298 23.0597 25.7803 23.0888 25.5341C23.1179 25.2878 23.1956 25.0498 23.3174 24.8339C23.4392 24.6179 23.6027 24.4283 23.7984 24.2761C23.9941 24.1238 24.2181 24.012 24.4574 23.947L26.1521 23.463C26.3819 23.3974 26.5841 23.2586 26.7281 23.0678C26.872 22.877 26.9499 22.6445 26.95 22.4055V18.3289L20.35 20.2151V27.3555C20.3499 27.8336 20.1941 28.2985 19.9062 28.6801C19.6183 29.0617 19.2139 29.3392 18.7542 29.4705L17.7862 29.7469C17.5485 29.8192 17.2987 29.8434 17.0515 29.8181C16.8043 29.7928 16.5646 29.7186 16.3463 29.5997C16.1281 29.4808 15.9357 29.3197 15.7804 29.1257C15.6251 28.9317 15.51 28.7087 15.4417 28.4697C15.3735 28.2308 15.3535 27.9806 15.3829 27.7339C15.4124 27.4871 15.4906 27.2487 15.6131 27.0325C15.7357 26.8163 15.9 26.6267 16.0966 26.4746C16.2932 26.3226 16.518 26.2112 16.7581 26.147L18.4521 25.663C18.6819 25.5974 18.8841 25.4586 19.0281 25.2678C19.172 25.077 19.2499 24.8445 19.25 24.6055V19.8125V17.05C19.25 16.9305 19.289 16.8142 19.3609 16.7188C19.4329 16.6234 19.534 16.5541 19.6489 16.5213L27.3489 14.3213C27.4308 14.2978 27.517 14.2937 27.6007 14.3092C27.6844 14.3247 27.7634 14.3595 27.8314 14.4107Z" fill="#7E3AF2"/>
</svg>
