<svg width="147" height="50" viewBox="0 0 147 50" fill="none" xmlns="http://www.w3.org/2000/svg">
<rect width="147" height="50" rx="25" fill="#7E3AF2"/>
<path d="M29.976 31.16C29.112 31.16 28.2747 31.0373 27.464 30.792C26.664 30.5467 26.0293 30.2213 25.56 29.816L26.28 28.2C26.7387 28.5627 27.2987 28.8613 27.96 29.096C28.632 29.32 29.304 29.432 29.976 29.432C30.808 29.432 31.4267 29.2987 31.832 29.032C32.248 28.7653 32.456 28.4133 32.456 27.976C32.456 27.656 32.3387 27.3947 32.104 27.192C31.88 26.9787 31.592 26.8133 31.24 26.696C30.888 26.5787 30.408 26.4453 29.8 26.296C28.9467 26.0933 28.2533 25.8907 27.72 25.688C27.1973 25.4853 26.744 25.1707 26.36 24.744C25.9867 24.3067 25.8 23.72 25.8 22.984C25.8 22.3653 25.9653 21.8053 26.296 21.304C26.6373 20.792 27.144 20.3867 27.816 20.088C28.4987 19.7893 29.3307 19.64 30.312 19.64C30.9947 19.64 31.6667 19.7253 32.328 19.896C32.9893 20.0667 33.56 20.312 34.04 20.632L33.384 22.248C32.8933 21.96 32.3813 21.7413 31.848 21.592C31.3147 21.4427 30.7973 21.368 30.296 21.368C29.4747 21.368 28.8613 21.5067 28.456 21.784C28.0613 22.0613 27.864 22.4293 27.864 22.888C27.864 23.208 27.976 23.4693 28.2 23.672C28.4347 23.8747 28.728 24.0347 29.08 24.152C29.432 24.2693 29.912 24.4027 30.52 24.552C31.352 24.744 32.0347 24.9467 32.568 25.16C33.1013 25.3627 33.5547 25.6773 33.928 26.104C34.312 26.5307 34.504 27.1067 34.504 27.832C34.504 28.4507 34.3333 29.0107 33.992 29.512C33.6613 30.0133 33.1547 30.4133 32.472 30.712C31.7893 31.0107 30.9573 31.16 29.976 31.16ZM44.6465 22.456V31H42.7425V29.912C42.4225 30.296 42.0225 30.5947 41.5425 30.808C41.0625 31.0107 40.5452 31.112 39.9905 31.112C38.8492 31.112 37.9478 30.7973 37.2865 30.168C36.6358 29.528 36.3105 28.584 36.3105 27.336V22.456H38.3105V27.064C38.3105 27.832 38.4812 28.408 38.8225 28.792C39.1745 29.1653 39.6705 29.352 40.3105 29.352C41.0252 29.352 41.5905 29.1333 42.0065 28.696C42.4332 28.248 42.6465 27.608 42.6465 26.776V22.456H44.6465ZM52.0011 22.36C52.8331 22.36 53.5745 22.5413 54.2251 22.904C54.8865 23.2667 55.4038 23.7787 55.7771 24.44C56.1505 25.1013 56.3371 25.864 56.3371 26.728C56.3371 27.592 56.1505 28.36 55.7771 29.032C55.4038 29.6933 54.8865 30.2053 54.2251 30.568C53.5745 30.9307 52.8331 31.112 52.0011 31.112C51.4145 31.112 50.8758 31.0107 50.3851 30.808C49.9051 30.6053 49.4998 30.3013 49.1691 29.896V31H47.2651V19.128H49.2651V23.496C49.6065 23.1227 50.0065 22.84 50.4651 22.648C50.9345 22.456 51.4465 22.36 52.0011 22.36ZM51.7771 29.4C52.5131 29.4 53.1158 29.1547 53.5851 28.664C54.0651 28.1733 54.3051 27.528 54.3051 26.728C54.3051 25.928 54.0651 25.2827 53.5851 24.792C53.1158 24.3013 52.5131 24.056 51.7771 24.056C51.2971 24.056 50.8651 24.168 50.4811 24.392C50.0971 24.6053 49.7931 24.9147 49.5691 25.32C49.3451 25.7253 49.2331 26.1947 49.2331 26.728C49.2331 27.2613 49.3451 27.7307 49.5691 28.136C49.7931 28.5413 50.0971 28.856 50.4811 29.08C50.8651 29.2933 51.2971 29.4 51.7771 29.4ZM69.0179 22.36C70.0952 22.36 70.9485 22.6747 71.5779 23.304C72.2072 23.9227 72.5219 24.856 72.5219 26.104V31H70.5219V26.36C70.5219 25.6133 70.3565 25.0533 70.0259 24.68C69.6952 24.296 69.2205 24.104 68.6019 24.104C67.9299 24.104 67.3912 24.328 66.9859 24.776C66.5805 25.2133 66.3779 25.8427 66.3779 26.664V31H64.3779V26.36C64.3779 25.6133 64.2125 25.0533 63.8819 24.68C63.5512 24.296 63.0765 24.104 62.4579 24.104C61.7752 24.104 61.2312 24.3227 60.8259 24.76C60.4312 25.1973 60.2339 25.832 60.2339 26.664V31H58.2339V22.456H60.1379V23.544C60.4579 23.16 60.8579 22.8667 61.3379 22.664C61.8179 22.4613 62.3512 22.36 62.9379 22.36C63.5779 22.36 64.1432 22.4827 64.6339 22.728C65.1352 22.9627 65.5299 23.3147 65.8179 23.784C66.1699 23.336 66.6232 22.9893 67.1779 22.744C67.7325 22.488 68.3459 22.36 69.0179 22.36ZM75.0776 22.456H77.0776V31H75.0776V22.456ZM76.0856 21.048C75.723 21.048 75.419 20.936 75.1736 20.712C74.9283 20.4773 74.8056 20.1893 74.8056 19.848C74.8056 19.5067 74.9283 19.224 75.1736 19C75.419 18.7653 75.723 18.648 76.0856 18.648C76.4483 18.648 76.7523 18.76 76.9976 18.984C77.243 19.1973 77.3656 19.4693 77.3656 19.8C77.3656 20.152 77.243 20.4507 76.9976 20.696C76.763 20.9307 76.459 21.048 76.0856 21.048ZM84.8386 30.536C84.604 30.728 84.316 30.872 83.9746 30.968C83.644 31.064 83.292 31.112 82.9186 31.112C81.98 31.112 81.2546 30.8667 80.7426 30.376C80.2306 29.8853 79.9746 29.1707 79.9746 28.232V24.12H78.5666V22.52H79.9746V20.568H81.9746V22.52H84.2626V24.12H81.9746V28.184C81.9746 28.6 82.076 28.92 82.2786 29.144C82.4813 29.3573 82.7746 29.464 83.1586 29.464C83.6066 29.464 83.98 29.3467 84.2786 29.112L84.8386 30.536Z" fill="#FCFBFA"/>
<path d="M104 25L101.269 16.126C107.802 18.0257 113.962 21.0268 119.485 25C113.963 28.9738 107.803 31.9755 101.27 33.876L104 25ZM104 25H111.5H104Z" fill="#FCFBFA"/>
<path d="M104 25L101.269 16.126C107.802 18.0257 113.962 21.0268 119.485 25C113.963 28.9738 107.803 31.9755 101.27 33.876L104 25ZM104 25H111.5" stroke="#7E3AF2" stroke-width="1.5" stroke-linecap="round" stroke-linejoin="round"/>
</svg>
